<svg width="354" height="310" viewBox="0 0 354 310" fill="none" xmlns="http://www.w3.org/2000/svg">
<g clip-path="url(#clip0)">
<path d="M233.501 82.1306H175.397C174.125 82.134 172.869 81.8821 171.725 81.3939C170.58 80.9058 169.577 80.1943 168.792 79.3137V79.3137C167.992 78.4247 167.434 77.387 167.159 76.2795C166.884 75.1721 166.9 74.024 167.206 72.9228C172.561 53.1859 172.561 32.617 167.205 12.8802C166.9 11.779 166.884 10.631 167.159 9.52361C167.434 8.41621 167.992 7.37856 168.792 6.48961C169.577 5.60892 170.58 4.89743 171.724 4.40929C172.869 3.92114 174.125 3.6692 175.397 3.67264H233.501C235.507 3.67772 237.445 4.30921 238.972 5.45465C240.498 6.60009 241.513 8.1851 241.835 9.92738C245.659 31.7815 245.659 54.0218 241.835 75.8759C241.513 77.6182 240.498 79.2032 238.972 80.3486C237.445 81.4941 235.507 82.1256 233.501 82.1306V82.1306Z" fill="#9C9C9C"/>
<path d="M175.397 7.51955C174.786 7.51774 174.183 7.63857 173.633 7.87282C173.083 8.10707 172.602 8.44858 172.224 8.87137C171.836 9.30456 171.565 9.80999 171.432 10.3492C171.299 10.8885 171.307 11.4473 171.457 11.9832C176.972 32.3098 176.972 53.4933 171.457 73.8199C171.307 74.3557 171.299 74.9145 171.432 75.4536C171.565 75.9928 171.836 76.4981 172.224 76.9312L172.224 76.9315C172.602 77.3544 173.083 77.696 173.633 77.9303C174.183 78.1646 174.786 78.2854 175.397 78.2836H233.5C234.464 78.2839 235.396 77.9833 236.131 77.4353C236.866 76.8874 237.356 76.1276 237.514 75.2913C241.27 53.8246 241.27 31.9785 237.514 10.5118C237.356 9.67557 236.866 8.91582 236.131 8.36784C235.396 7.81987 234.464 7.51925 233.5 7.51954L175.397 7.51955Z" fill="black"/>
<path d="M220.821 26.0174H190.331C189.172 26.0163 188.061 25.6107 187.241 24.8895C186.421 24.1683 185.96 23.1905 185.959 22.1706V20.6674C185.96 19.6475 186.421 18.6697 187.241 17.9485C188.061 17.2273 189.172 16.8217 190.331 16.8206H220.821C221.98 16.8217 223.091 17.2273 223.911 17.9485C224.73 18.6697 225.191 19.6475 225.193 20.6674V22.1707C225.191 23.1906 224.73 24.1684 223.911 24.8895C223.091 25.6107 221.98 26.0163 220.821 26.0174Z" fill="#9C9C9C"/>
<path d="M220.821 45.0123H190.331C189.172 45.0112 188.061 44.6055 187.241 43.8844C186.421 43.1632 185.96 42.1854 185.959 41.1655V39.6622C185.96 38.6423 186.421 37.6645 187.241 36.9433C188.061 36.2222 189.172 35.8165 190.331 35.8154H220.821C221.98 35.8165 223.091 36.2222 223.911 36.9433C224.73 37.6645 225.191 38.6423 225.193 39.6622V41.1655C225.191 42.1854 224.73 43.1632 223.911 43.8844C223.091 44.6055 221.98 45.0112 220.821 45.0123Z" fill="#9C9C9C"/>
<path d="M220.821 64.0069H190.331C189.172 64.0058 188.061 63.6002 187.241 62.879C186.421 62.1578 185.96 61.18 185.959 60.1601V58.6569C185.96 57.637 186.421 56.6591 187.241 55.938C188.061 55.2168 189.172 54.8112 190.331 54.8101H220.821C221.98 54.8112 223.091 55.2168 223.911 55.938C224.73 56.6591 225.191 57.637 225.193 58.6569V60.1601C225.191 61.18 224.73 62.1578 223.911 62.879C223.091 63.6002 221.98 64.0058 220.821 64.0069V64.0069Z" fill="#9C9C9C"/>
<path d="M342.797 130.859H284.694C283.422 130.862 282.166 130.61 281.021 130.122C279.877 129.634 278.873 128.922 278.088 128.042V128.042C277.289 127.153 276.731 126.115 276.456 125.008C276.181 123.9 276.197 122.752 276.502 121.651C281.857 101.914 281.857 81.345 276.502 61.6082C276.197 60.507 276.181 59.3591 276.456 58.2516C276.731 57.1442 277.289 56.1066 278.088 55.2176C278.873 54.3369 279.876 53.6255 281.021 53.1373C282.166 52.6492 283.422 52.3972 284.694 52.4007H342.797C344.803 52.4057 346.742 53.0372 348.269 54.1827C349.795 55.3281 350.81 56.9131 351.132 58.6554C354.956 80.5095 354.956 102.75 351.132 124.604C350.81 126.346 349.795 127.931 348.269 129.077C346.742 130.222 344.803 130.854 342.797 130.859Z" fill="#9C9C9C"/>
<path d="M284.694 56.2476C284.083 56.2458 283.48 56.3666 282.93 56.6008C282.38 56.8351 281.898 57.1766 281.521 57.5994C281.133 58.0326 280.862 58.538 280.729 59.0773C280.595 59.6165 280.604 60.1753 280.753 60.7113C286.269 81.0378 286.269 102.221 280.754 122.548C280.604 123.084 280.596 123.642 280.729 124.182C280.862 124.721 281.132 125.226 281.521 125.659L281.521 125.66C281.898 126.082 282.38 126.424 282.93 126.658C283.48 126.893 284.083 127.013 284.694 127.012H342.797C343.761 127.012 344.693 126.711 345.428 126.163C346.163 125.615 346.653 124.856 346.811 124.019C350.567 102.553 350.567 80.7066 346.811 59.2399C346.653 58.4036 346.163 57.6438 345.428 57.0959C344.693 56.5479 343.761 56.2473 342.797 56.2476L284.694 56.2476Z" fill="black"/>
<path d="M226.943 186.319H168.839C167.512 186.322 166.202 186.059 165.008 185.55C163.813 185.041 162.767 184.298 161.948 183.38C161.114 182.453 160.532 181.371 160.245 180.216C159.959 179.061 159.975 177.864 160.294 176.715C165.635 157.028 165.635 136.51 160.293 116.823C159.975 115.674 159.959 114.477 160.245 113.322C160.532 112.168 161.114 111.086 161.948 110.159C162.767 109.24 163.813 108.497 165.007 107.988C166.202 107.479 167.512 107.216 168.839 107.22H226.943C229.036 107.225 231.058 107.884 232.651 109.079C234.243 110.274 235.301 111.928 235.638 113.746C239.467 135.632 239.467 157.906 235.638 179.792C235.301 181.61 234.243 183.264 232.651 184.459C231.058 185.654 229.036 186.313 226.943 186.319V186.319Z" fill="#524D54"/>
<path d="M330.118 84.3626H299.628C298.469 84.3615 297.357 83.9559 296.538 83.2347C295.718 82.5135 295.257 81.5357 295.256 80.5158V79.0126C295.257 77.9927 295.718 77.0149 296.538 76.2937C297.357 75.5725 298.469 75.1669 299.628 75.1658H330.118C331.277 75.1669 332.388 75.5725 333.208 76.2937C334.027 77.0149 334.488 77.9927 334.489 79.0126V80.5159C334.488 81.5358 334.027 82.5136 333.208 83.2347C332.388 83.9559 331.277 84.3615 330.118 84.3626V84.3626Z" fill="#9C9C9C"/>
<path d="M330.118 103.358H299.628C298.469 103.356 297.357 102.951 296.538 102.23C295.718 101.508 295.257 100.531 295.256 99.5107V98.0074C295.257 96.9875 295.718 96.0097 296.538 95.2886C297.357 94.5674 298.469 94.1618 299.628 94.1606H330.118C331.277 94.1618 332.388 94.5674 333.208 95.2886C334.027 96.0097 334.488 96.9875 334.489 98.0074V99.5107C334.488 100.531 334.027 101.508 333.208 102.23C332.388 102.951 331.277 103.356 330.118 103.358V103.358Z" fill="#9C9C9C"/>
<path d="M198.054 161.251C207.309 161.251 214.812 154.649 214.812 146.505C214.812 138.36 207.309 131.758 198.054 131.758C188.798 131.758 181.295 138.36 181.295 146.505C181.295 154.649 188.798 161.251 198.054 161.251Z" fill="black"/>
<path d="M206.069 144.581H200.239V139.452C200.239 138.942 200.009 138.453 199.599 138.092C199.189 137.731 198.633 137.529 198.054 137.529C197.474 137.529 196.918 137.731 196.508 138.092C196.098 138.453 195.868 138.942 195.868 139.452V144.581H190.038C189.459 144.581 188.903 144.784 188.493 145.145C188.083 145.505 187.853 145.995 187.853 146.505C187.853 147.015 188.083 147.504 188.493 147.865C188.903 148.226 189.459 148.428 190.038 148.428H195.868V153.557C195.868 154.068 196.098 154.557 196.508 154.918C196.918 155.278 197.474 155.481 198.054 155.481C198.633 155.481 199.189 155.278 199.599 154.918C200.009 154.557 200.239 154.068 200.239 153.557V148.428H206.069C206.648 148.428 207.204 148.226 207.614 147.865C208.024 147.504 208.255 147.015 208.255 146.505C208.255 145.995 208.024 145.505 207.614 145.145C207.204 144.784 206.648 144.581 206.069 144.581V144.581Z" fill="#9C9C9C"/>
<path d="M219.184 10.8997H188.581C187.712 10.8988 186.878 10.5946 186.264 10.0537C185.649 9.51278 185.303 8.77942 185.302 8.01448V2.88521C185.303 2.12027 185.649 1.38691 186.264 0.846011C186.878 0.305115 187.712 0.000862075 188.581 0H219.184C220.053 0.000862075 220.887 0.305115 221.502 0.846011C222.116 1.38691 222.462 2.12027 222.463 2.88521V8.01448C222.462 8.77942 222.116 9.51278 221.502 10.0537C220.887 10.5946 220.053 10.8988 219.184 10.8997Z" fill="white"/>
<path d="M329.938 60.2688H299.335C298.466 60.268 297.632 59.9637 297.018 59.4228C296.403 58.8819 296.057 58.1486 296.056 57.3836V52.2544C296.057 51.4894 296.403 50.7561 297.018 50.2152C297.632 49.6743 298.466 49.37 299.335 49.3691H329.938C330.808 49.37 331.641 49.6743 332.256 50.2152C332.87 50.7561 333.216 51.4894 333.217 52.2544V57.3836C333.216 58.1486 332.87 58.8819 332.256 59.4228C331.641 59.9637 330.808 60.268 329.938 60.2688Z" fill="white"/>
<path d="M64.555 302.025H73.4882L76.2811 271.706H64.5536L64.555 302.025Z" fill="#FFB8B8"/>
<path d="M62.2766 299.458L79.8689 299.458H79.8696C81.3419 299.458 82.7997 299.713 84.16 300.209C85.5202 300.704 86.7561 301.431 87.7972 302.347C88.8383 303.263 89.6641 304.351 90.2275 305.548C90.7909 306.744 91.0809 308.027 91.0809 309.323V309.643L62.2772 309.644L62.2766 299.458Z" fill="#4A4956"/>
<path d="M16.4645 302.025H25.3977L29.6478 271.706H16.463L16.4645 302.025Z" fill="#FFB8B8"/>
<path d="M14.1862 299.458L31.7784 299.458H31.7791C33.2514 299.458 34.7093 299.713 36.0695 300.209C37.4297 300.704 38.6656 301.431 39.7067 302.347C40.7478 303.263 41.5736 304.351 42.137 305.548C42.7004 306.744 42.9904 308.027 42.9904 309.323V309.643L14.1867 309.644L14.1862 299.458Z" fill="#4A4956"/>
<path d="M18.0494 292.447C17.1382 292.447 16.2603 292.145 15.5902 291.602V291.602C15.2305 291.313 14.9408 290.963 14.7385 290.573C14.5362 290.184 14.4255 289.762 14.4129 289.334L10.8304 176.353L61.6979 187.543L77.3926 228.973C79.4165 234.302 80.2926 239.918 79.976 245.53L78.0272 285.69C77.9827 286.513 77.5798 287.289 76.9021 287.857C76.2244 288.425 75.3241 288.742 74.388 288.741H65.8563C64.9757 288.738 64.1259 288.456 63.4628 287.946C62.7997 287.436 62.3677 286.733 62.246 285.965L56.1481 241.635C55.6152 238.176 54.2404 234.86 52.1174 231.912L40.117 215.193C40.0368 215.082 39.9193 214.994 39.7806 214.944C39.642 214.893 39.4889 214.881 39.3423 214.91C39.1958 214.939 39.063 215.007 38.9619 215.105C38.8609 215.202 38.7967 215.325 38.778 215.456L29.3606 289.246C29.2595 289.994 28.8616 290.687 28.2369 291.203C27.6121 291.719 26.8007 292.024 25.9455 292.065L18.2568 292.441C18.1876 292.445 18.1186 292.447 18.0494 292.447Z" fill="#4A4956"/>
<path d="M53.233 103.205C63.1169 103.205 71.1293 96.1551 71.1293 87.458C71.1293 78.7608 63.1169 71.7104 53.233 71.7104C43.3492 71.7104 35.3368 78.7608 35.3368 87.458C35.3368 96.1551 43.3492 103.205 53.233 103.205Z" fill="#FFB8B8"/>
<path d="M61.4543 192.137C61.1463 192.137 60.8397 192.103 60.5414 192.035H60.5408L10.0718 180.649C9.16943 180.445 8.38992 179.945 7.8935 179.252C7.39709 178.558 7.22149 177.724 7.40283 176.92L18.9935 121.979C19.7156 118.803 21.3029 115.829 23.6191 113.311C25.9352 110.794 28.9111 108.809 32.2911 107.527C35.5844 106.245 39.186 105.695 42.7779 105.927C46.3697 106.159 49.8415 107.166 52.8867 108.858C53.5932 109.246 54.305 109.669 55.0016 110.115C57.8061 111.935 60.0931 114.303 61.6833 117.031C63.2736 119.76 64.1237 122.776 64.1671 125.842L65.0888 188.886C65.095 189.31 65.0056 189.731 64.8259 190.125C64.6462 190.518 64.3797 190.876 64.0418 191.179C63.7038 191.481 63.3012 191.721 62.8571 191.886C62.413 192.05 61.9362 192.136 61.4543 192.137V192.137Z" fill="#ED335F"/>
<path d="M15.2646 192.784C14.6626 192.004 14.2621 191.118 14.0914 190.187C13.9207 189.257 13.984 188.305 14.2768 187.398C14.5695 186.491 15.0846 185.652 15.7858 184.939C16.487 184.227 17.3572 183.658 18.3351 183.274L16.0903 160.447L27.9862 166.121L28.2941 186.927C28.9195 188.416 28.9027 190.054 28.2468 191.532C27.5909 193.011 26.3416 194.226 24.7356 194.948C23.1295 195.67 21.2783 195.848 19.5328 195.449C17.7872 195.05 16.2686 194.102 15.2646 192.784H15.2646Z" fill="#FFB8B8"/>
<path d="M19.5146 180.255C19.1789 180.254 18.8446 180.217 18.5194 180.144C17.82 179.987 17.1819 179.667 16.6724 179.217C16.1629 178.767 15.8012 178.204 15.6253 177.588L9.77927 157.146C7.73623 150.006 8.71016 142.456 12.5199 135.901L24.7675 114.818C25.5418 112.294 27.4124 110.139 29.9761 108.817C32.5398 107.496 35.5911 107.114 38.472 107.754C39.9078 108.073 41.2575 108.64 42.4426 109.421C43.6277 110.203 44.6247 111.183 45.3758 112.306C46.1423 113.446 46.6436 114.708 46.8505 116.019C47.0575 117.33 46.9658 118.665 46.581 119.945L29.1463 154.25L29.3534 174.79C29.3588 175.515 29.1112 176.223 28.6441 176.82C28.177 177.417 27.5129 177.873 26.7416 178.127L20.9071 180.034C20.4616 180.18 19.99 180.255 19.5146 180.255Z" fill="#ED335F"/>
<path d="M102.97 184.387C101.906 184.28 100.882 183.969 99.9687 183.476C99.0558 182.983 98.277 182.32 97.687 181.533C97.097 180.746 96.7102 179.855 96.5538 178.923C96.3975 177.99 96.4754 177.039 96.782 176.136L75.6561 162.743L88.3029 158.51L106.425 171.877C108.116 172.431 109.516 173.511 110.361 174.913C111.207 176.315 111.439 177.941 111.013 179.483C110.587 181.025 109.533 182.376 108.051 183.28C106.568 184.184 104.761 184.578 102.97 184.387H102.97Z" fill="#FFB8B8"/>
<path d="M91.911 174.607C91.2881 174.606 90.6739 174.479 90.1166 174.234L68.6951 164.798C61.2129 161.503 55.3454 155.928 52.1835 149.112L42.0137 127.19C40.3447 125.027 39.7087 122.374 40.2427 119.802C40.7767 117.23 42.4379 114.945 44.8683 113.441C46.0826 112.69 47.4547 112.159 48.9046 111.879C50.3545 111.599 51.8533 111.575 53.3135 111.81C54.7909 112.044 56.2009 112.533 57.4617 113.25C58.7226 113.967 59.8093 114.897 60.6588 115.986L78.8349 149.992L96.6618 163.253C97.2895 163.722 97.7385 164.35 97.9478 165.05C98.1572 165.751 98.117 166.492 97.8325 167.172L95.6686 172.306C95.3861 172.98 94.8757 173.561 94.2063 173.971C93.5334 174.385 92.7321 174.607 91.911 174.607V174.607Z" fill="#ED335F"/>
<path d="M49.4751 103.446C50.426 103.812 52.3731 97.1455 51.5009 95.8121C50.2037 93.829 50.2804 93.8432 49.4193 92.5312C48.5582 91.2193 48.3655 89.4235 49.4806 88.2691C50.5958 87.1147 53.1763 87.2678 53.6852 88.7152C53.3578 85.966 56.4482 83.7561 59.5093 83.1351C62.5704 82.5141 65.7993 82.8997 68.8772 82.347C72.4494 81.7057 76.166 79.0709 74.7408 75.6144C74.4962 75.0389 74.13 74.5094 73.6616 74.0538C72.0149 72.4246 69.7115 71.729 67.4594 71.0564C62.7742 69.6571 57.9608 68.2402 53.0161 68.3946C48.942 68.5821 45.0183 69.8105 41.7252 71.9296C38.4322 74.0487 35.9126 76.9666 34.4748 80.3261C34.134 81.1666 33.87 82.0296 33.6853 82.907C31.9881 90.937 37.2875 98.8577 45.8947 101.916L49.4751 103.446Z" fill="#4A4956"/>
<path opacity="0.2" d="M28.3444 175.256L28.7502 154.144L41.46 131.657L31.2589 154.739L28.3444 175.256Z" fill="black"/>
<path d="M143.599 228.241L89.943 208.624C88.7669 208.198 87.7167 207.541 86.8725 206.704C86.0283 205.867 85.4122 204.871 85.0712 203.793C84.7206 202.702 84.6575 201.555 84.8866 200.44C85.1157 199.324 85.631 198.27 86.3934 197.356C99.9446 180.937 108.913 161.943 112.574 141.908C112.772 140.788 113.258 139.723 113.995 138.793C114.731 137.863 115.699 137.094 116.825 136.542C117.934 135.994 119.171 135.676 120.441 135.612C121.711 135.547 122.98 135.739 124.154 136.171L177.81 155.788C179.66 156.47 181.175 157.708 182.085 159.281C182.996 160.854 183.242 162.66 182.78 164.378C176.782 185.85 167.084 206.389 154.024 225.279C152.966 226.779 151.338 227.9 149.429 228.443C147.52 228.985 145.454 228.914 143.599 228.241Z" fill="#9C9C9C"/>
<path d="M122.476 139.724C121.913 139.516 121.303 139.424 120.693 139.454C120.083 139.485 119.489 139.638 118.957 139.901C118.409 140.17 117.938 140.545 117.58 140.998C117.222 141.451 116.987 141.97 116.891 142.515C113.121 163.148 103.884 182.711 89.928 199.62C89.5564 200.064 89.3048 200.577 89.1925 201.12C89.0802 201.662 89.1101 202.221 89.2799 202.752L89.2801 202.752C89.444 203.27 89.74 203.748 90.1455 204.15C90.5511 204.552 91.0555 204.867 91.6204 205.072L145.277 224.689C146.166 225.014 147.158 225.051 148.076 224.793C148.994 224.535 149.778 223.999 150.288 223.28C163.117 204.725 172.643 184.551 178.534 163.459C178.753 162.633 178.632 161.766 178.192 161.012C177.752 160.258 177.022 159.665 176.132 159.34L122.476 139.724Z" fill="black"/>
<path d="M151.046 183.391L122.889 173.097C121.82 172.705 120.97 171.955 120.528 171.013C120.085 170.07 120.086 169.011 120.53 168.069L121.185 166.681C121.631 165.739 122.483 164.992 123.554 164.603C124.626 164.214 125.829 164.214 126.9 164.604L155.056 174.898C156.126 175.291 156.975 176.04 157.418 176.983C157.86 177.926 157.859 178.984 157.416 179.927L156.76 181.315C156.315 182.256 155.462 183.004 154.391 183.393C153.32 183.782 152.117 183.782 151.046 183.391V183.391Z" fill="#ED335F"/>
<path d="M142.764 200.932L114.607 190.638C113.537 190.246 112.688 189.496 112.245 188.554C111.803 187.611 111.804 186.552 112.247 185.61L112.903 184.222C113.349 183.28 114.201 182.533 115.272 182.144C116.343 181.755 117.546 181.755 118.617 182.145L146.774 192.439C147.844 192.832 148.693 193.582 149.135 194.524C149.578 195.467 149.577 196.525 149.133 197.468L148.478 198.856C148.032 199.797 147.18 200.545 146.109 200.934C145.037 201.323 143.834 201.323 142.764 200.932V200.932Z" fill="#ED335F"/>
<path d="M162.328 158.739C161.907 158.739 161.489 158.667 161.099 158.527L132.727 148.434C131.921 148.146 131.278 147.589 130.939 146.885C130.599 146.181 130.591 145.387 130.916 144.678L133.101 139.922C133.427 139.213 134.06 138.646 134.86 138.348C135.661 138.049 136.564 138.042 137.37 138.329L165.742 148.423C166.547 148.71 167.19 149.267 167.53 149.971C167.869 150.675 167.878 151.469 167.553 152.179L165.368 156.934C165.122 157.467 164.702 157.923 164.161 158.244C163.619 158.566 162.981 158.738 162.328 158.739V158.739Z" fill="white"/>
<path d="M102.739 310H0.728644C0.535396 310 0.350073 309.933 0.213426 309.812C0.0767782 309.692 0 309.529 0 309.359C0 309.189 0.0767782 309.026 0.213426 308.906C0.350073 308.785 0.535396 308.718 0.728644 308.718H102.739C102.932 308.718 103.117 308.785 103.254 308.906C103.391 309.026 103.468 309.189 103.468 309.359C103.468 309.529 103.391 309.692 103.254 309.812C103.117 309.933 102.932 310 102.739 310Z" fill="white"/>
</g>
<defs>
<clipPath id="clip0">
<rect width="354" height="310" fill="white"/>
</clipPath>
</defs>
</svg>
