<svg xmlns="http://www.w3.org/2000/svg" xmlns:xlink="http://www.w3.org/1999/xlink" width="324" height="324" viewBox="0 0 324 324"><defs><clipPath id="b"><rect width="324" height="324"/></clipPath></defs><g id="a" clip-path="url(#b)"><path d="M50,0H274a50,50,0,0,1,50,50V274a50,50,0,0,1-50,50H50A50,50,0,0,1,0,274V50A50,50,0,0,1,50,0Z" fill="#ffc5c8"/><g transform="translate(-384.905 -402.105)"><g transform="translate(381.36 383.105)"><path d="M18.87,45.26V-181.05h95.943a64.232,64.232,0,0,1,28.846,6.534,74.625,74.625,0,0,1,22.79,17.212,81.222,81.222,0,0,1,14.981,24.225,72.865,72.865,0,0,1,5.419,27.253,78.538,78.538,0,0,1-5.1,27.89A77.436,77.436,0,0,1,167.406-53.87a70.471,70.471,0,0,1-22.312,16.894A64.547,64.547,0,0,1,116.406-30.6H62.857V45.26ZM62.857-69.17h51q12.112,0,20.24-9.881t8.128-26.775a44.092,44.092,0,0,0-2.55-15.459,37.558,37.558,0,0,0-6.694-11.634,26.638,26.638,0,0,0-9.722-7.172,28.486,28.486,0,0,0-11.315-2.391H62.857Z" transform="translate(62.686 248.895)" fill="#ed335f"/><rect width="92" height="83" transform="translate(119.672 102.748)" fill="#ed335f"/><path d="M46.211,11.875a8,8,0,0,1,13.827,0l39.21,67.349a8,8,0,0,1-6.914,12.025H13.915A8,8,0,0,1,7,79.224Z" transform="translate(216.119 89.858) rotate(90)" fill="#761137"/></g></g></g></svg>