<svg width="17" height="17" viewBox="0 0 17 17" fill="none" xmlns="http://www.w3.org/2000/svg">
<path d="M16.8362 6.90743C14.1153 6.90612 11.3945 6.90677 8.67372 6.90708C8.67407 8.01298 8.67238 9.11887 8.67439 10.2244C10.2501 10.2241 11.8258 10.2238 13.4012 10.2244C13.2186 11.2841 12.5759 12.2533 11.6645 12.8499C11.0916 13.2273 10.4334 13.4724 9.75478 13.5889C9.07179 13.7031 8.36607 13.7177 7.68478 13.5825C6.99196 13.4471 6.33063 13.1642 5.75369 12.7655C4.83118 12.1304 4.12715 11.2011 3.76567 10.1553C3.39604 9.09161 3.39333 7.90801 3.76736 6.84531C4.02688 6.09631 4.45884 5.40443 5.02629 4.84138C5.72623 4.13919 6.63623 3.63723 7.61666 3.43138C8.45618 3.25577 9.34143 3.28928 10.1634 3.53296C10.862 3.7408 11.506 4.11594 12.0335 4.60962C12.5667 4.09003 13.0973 3.56747 13.6295 3.04691C13.9087 2.76672 14.2021 2.49879 14.4724 2.21096C13.6641 1.47789 12.7165 0.888613 11.6811 0.516102C9.81711 -0.15616 7.71492 -0.170429 5.83838 0.46604C3.72364 1.17551 1.92297 2.72526 0.924588 4.68407C0.576997 5.35903 0.323223 6.07945 0.170776 6.82047C-0.212741 8.66669 0.0545716 10.6351 0.923565 12.3167C1.48833 13.4143 2.29803 14.39 3.28019 15.1549C4.2068 15.879 5.28683 16.4139 6.43195 16.7123C7.87689 17.0921 9.41498 17.0835 10.8694 16.7592C12.1839 16.4627 13.4276 15.8472 14.4206 14.9488C15.4702 14.0036 16.2189 12.7582 16.6153 11.42C17.0476 9.96018 17.1072 8.40176 16.8362 6.90743Z" fill="white"/>
</svg>
