<svg width="1920" height="318" viewBox="0 0 1920 318" fill="none" xmlns="http://www.w3.org/2000/svg">
<path fill-rule="evenodd" clip-rule="evenodd" d="M1920 0L1856 47.1111C1792 94.2222 1664 188.444 1536 229.667C1408 270.889 1280 259.111 1152 235.556C1024 212 896 176.667 768 129.556C640 82.4444 512 23.5556 384 23.5556C256 23.5556 128 82.4444 64 111.889L-2.86102e-05 141.333V318H64C128 318 256 318 384 318C512 318 640 318 768 318C896 318 1024 318 1152 318C1280 318 1408 318 1536 318C1664 318 1792 318 1856 318H1920V0Z" fill="#ED335F" fill-opacity="0.22"/>
</svg>
