<svg width="1919" height="164" viewBox="0 0 1919 164" fill="none" xmlns="http://www.w3.org/2000/svg">
<path fill-rule="evenodd" clip-rule="evenodd" d="M0 164L79.9583 144.476C159.917 124.952 319.833 85.9048 479.75 85.9048C639.667 85.9048 799.583 124.952 959.5 124.952C1119.42 124.952 1279.33 85.9048 1439.25 74.1905C1599.17 62.4762 1759.08 78.0952 1839.04 85.9048L1919 93.7143V0H1839.04C1759.08 0 1599.17 0 1439.25 0C1279.33 0 1119.42 0 959.5 0C799.583 0 639.667 0 479.75 0C319.833 0 159.917 0 79.9583 0H0V164Z" fill="#ED335F" fill-opacity="0.64"/>
</svg>
