<svg width="1920" height="227" viewBox="0 0 1920 227" fill="none" xmlns="http://www.w3.org/2000/svg">
<path fill-rule="evenodd" clip-rule="evenodd" d="M1920 0L1856 33.6296C1792 67.2593 1664 134.519 1536 163.944C1408 193.37 1280 184.963 1152 168.148C1024 151.333 896 126.111 768 92.4815C640 58.8519 512 16.8148 384 16.8148C256 16.8148 128 58.8519 64 79.8704L0 100.889V227H64C128 227 256 227 384 227C512 227 640 227 768 227C896 227 1024 227 1152 227C1280 227 1408 227 1536 227C1664 227 1792 227 1856 227H1920V0Z" fill="#ED335F" fill-opacity="0.22"/>
</svg>
