<svg width="18" height="19" viewBox="0 0 18 19" fill="none" xmlns="http://www.w3.org/2000/svg">
<path d="M8.94712 4.89087C6.47798 4.89087 4.43213 6.90145 4.43213 9.40586C4.43213 11.9103 6.44271 13.9208 8.94712 13.9208C11.4515 13.9208 13.4621 11.875 13.4621 9.40586C13.4621 6.93672 11.4163 4.89087 8.94712 4.89087ZM8.94712 12.2983C7.35982 12.2983 6.0547 10.9932 6.0547 9.40586C6.0547 7.81856 7.35982 6.51344 8.94712 6.51344C10.5344 6.51344 11.8395 7.81856 11.8395 9.40586C11.8395 10.9932 10.5344 12.2983 8.94712 12.2983Z" fill="#C4C4C4"/>
<path d="M13.6382 5.80806C14.2031 5.80806 14.6611 5.35008 14.6611 4.78513C14.6611 4.22019 14.2031 3.76221 13.6382 3.76221C13.0732 3.76221 12.6152 4.22019 12.6152 4.78513C12.6152 5.35008 13.0732 5.80806 13.6382 5.80806Z" fill="#C4C4C4"/>
<path d="M16.2839 2.13957C15.3668 1.18719 14.0617 0.693359 12.5802 0.693359H5.31386C2.24507 0.693359 0.199219 2.73921 0.199219 5.808V13.039C0.199219 14.5558 0.693046 15.8609 1.6807 16.8133C2.63308 17.7304 3.90292 18.1889 5.34913 18.1889H12.5449C14.0617 18.1889 15.3315 17.6951 16.2486 16.8133C17.201 15.8962 17.6948 14.5911 17.6948 13.0743V5.808C17.6948 4.32652 17.201 3.05667 16.2839 2.13957ZM16.1428 13.0743C16.1428 14.1678 15.7548 15.0496 15.1199 15.6493C14.4849 16.2489 13.6031 16.5664 12.5449 16.5664H5.34913C4.29093 16.5664 3.40909 16.2489 2.77417 15.6493C2.13925 15.0143 1.82179 14.1325 1.82179 13.039V5.808C1.82179 4.7498 2.13925 3.86796 2.77417 3.23304C3.37382 2.63339 4.29093 2.31593 5.34913 2.31593H12.6154C13.6736 2.31593 14.5555 2.63339 15.1904 3.26832C15.79 3.90324 16.1428 4.78507 16.1428 5.808V13.0743Z" fill="#C4C4C4"/>
</svg>
