<svg width="1920" height="748" viewBox="0 0 1920 748" fill="none" xmlns="http://www.w3.org/2000/svg">
<path fill-rule="evenodd" clip-rule="evenodd" d="M0 99.9266L80 117.929C160 135.931 320 171.935 480 261.945C640 351.955 800 495.971 960 423.963C1120 351.955 1280 63.9225 1440 9.91641C1600 -44.0897 1760 135.931 1840 225.941L1920 315.951V748H1840C1760 748 1600 748 1440 748C1280 748 1120 748 960 748C800 748 640 748 480 748C320 748 160 748 80 748H0V99.9266Z" fill="#ED335F" fill-opacity="0.05"/>
</svg>
