<svg width="1920" height="265" viewBox="0 0 1920 265" fill="none" xmlns="http://www.w3.org/2000/svg">
<path fill-rule="evenodd" clip-rule="evenodd" d="M0 61.9399L80 106.064C160 150.188 320 238.436 480 203.504C640 168.573 800 9.54266 960 0.350168C1120 -7.92307 1280 132.722 1440 176.846C1600 220.97 1760 168.573 1840 141.915L1920 115.256V380H1840C1760 380 1600 380 1440 380C1280 380 1120 380 960 380C800 380 640 380 480 380C320 380 160 380 80 380H0V61.9399Z" fill="#ED335F" fill-opacity="0.3"/>
</svg>
