<svg xmlns="http://www.w3.org/2000/svg" width="1011.84" height="244.545" viewBox="0 0 1011.84 244.545"><g transform="translate(-461.87 -443.85)"><path d="M18.87,0V-181.05H95.625a51.387,51.387,0,0,1,23.077,5.227,59.7,59.7,0,0,1,18.232,13.77,64.978,64.978,0,0,1,11.985,19.38,58.293,58.293,0,0,1,4.335,21.8,62.831,62.831,0,0,1-4.08,22.313A61.95,61.95,0,0,1,137.7-79.305,56.377,56.377,0,0,1,119.85-65.79a51.638,51.638,0,0,1-22.95,5.1H54.06V0ZM54.06-91.545h40.8q9.69,0,16.193-7.9t6.5-21.42a35.274,35.274,0,0,0-2.04-12.367,30.046,30.046,0,0,0-5.355-9.307,21.311,21.311,0,0,0-7.777-5.738A22.789,22.789,0,0,0,93.33-150.2H54.06Zm120.1-94.605h34.17V-42.84q0,7.4,3.57,11.475t10.2,4.08a25.6,25.6,0,0,0,6.757-1.02,45.706,45.706,0,0,0,7.013-2.55l4.59,26.01A66.084,66.084,0,0,1,224.4.255,87.642,87.642,0,0,1,207.825,2.04q-16.065,0-24.862-8.543t-8.8-24.353ZM291.72,2.55a50.688,50.688,0,0,1-18.1-3.188A43.521,43.521,0,0,1,259.08-9.562a41.541,41.541,0,0,1-9.563-13.388,40.541,40.541,0,0,1-3.443-16.83,37.075,37.075,0,0,1,4.208-17.468,40.053,40.053,0,0,1,11.73-13.643,58.152,58.152,0,0,1,17.978-8.8,78.421,78.421,0,0,1,22.95-3.188,98.888,98.888,0,0,1,17.467,1.53A71.15,71.15,0,0,1,335.58-77.01v-7.65q0-13.26-7.522-20.4t-22.312-7.14a59.1,59.1,0,0,0-20.91,3.825,97.1,97.1,0,0,0-20.91,11.22L253.47-118.83q25.755-17.085,55.59-17.085,28.815,0,44.753,14.153T369.75-80.835V-39.27q0,5.355,1.912,7.65t6.247,2.55V0a76.076,76.076,0,0,1-15.045,1.785q-9.69,0-14.918-4.335a18.636,18.636,0,0,1-6.5-11.475l-.765-7.4A59.136,59.136,0,0,1,319.005-3.57,62.242,62.242,0,0,1,291.72,2.55Zm9.69-24.99a44.516,44.516,0,0,0,16.448-3.06,29.853,29.853,0,0,0,12.112-8.16q5.61-4.335,5.61-9.69v-15.3a83.658,83.658,0,0,0-13.26-3.7,71.422,71.422,0,0,0-13.77-1.4q-13.26,0-21.675,5.993T278.46-42.585a18.256,18.256,0,0,0,6.63,14.408A24.065,24.065,0,0,0,301.41-22.44Zm99.705,48.45a65.924,65.924,0,0,0,8.415,1.912,45.856,45.856,0,0,0,6.885.638,14.614,14.614,0,0,0,6.12-1.275,13.105,13.105,0,0,0,5.1-4.463,43.564,43.564,0,0,0,4.59-8.8Q434.52,8.415,437.07,0L384.285-133.62h35.19l36.21,104.04,32.13-104.04h32.13l-56.1,160.14A47.843,47.843,0,0,1,447.27,49.47Q435.54,58.4,418.2,58.4a55.268,55.268,0,0,1-8.288-.638,53,53,0,0,1-8.8-2.167ZM538.3-186.15h34.17V-42.84q0,7.4,3.57,11.475t10.2,4.08A25.6,25.6,0,0,0,593-28.305a45.705,45.705,0,0,0,7.013-2.55l4.59,26.01A66.082,66.082,0,0,1,588.54.255,87.642,87.642,0,0,1,571.965,2.04Q555.9,2.04,547.1-6.5t-8.8-24.353ZM619.4,0V-133.62h34.17V0Zm0-152.235V-186.15h34.17v33.915ZM734.91,2.55a103.365,103.365,0,0,1-32.895-5.355,80.23,80.23,0,0,1-27.54-15.3l12.75-21.42a109.849,109.849,0,0,0,23.843,13.132,63.918,63.918,0,0,0,23.078,4.463q10.2,0,16.065-3.825a12.321,12.321,0,0,0,5.865-10.965q0-7.14-6.885-10.455t-22.44-7.65q-13-3.57-22.185-6.885a56.937,56.937,0,0,1-14.79-7.523,25.735,25.735,0,0,1-8.16-9.69,30.934,30.934,0,0,1-2.55-13.133,41.575,41.575,0,0,1,3.953-18.36,40,40,0,0,1,11.092-13.9,51.349,51.349,0,0,1,16.7-8.8,67.852,67.852,0,0,1,20.782-3.06,89.35,89.35,0,0,1,28.178,4.335,68.672,68.672,0,0,1,24.1,14.025L770.1-97.155a80.015,80.015,0,0,0-19.763-11.22,54.022,54.022,0,0,0-19-3.57q-8.67,0-14.535,3.57T710.94-96.9a11.1,11.1,0,0,0,1.4,5.865,12.353,12.353,0,0,0,4.463,4.08,43.554,43.554,0,0,0,8.032,3.442q4.973,1.658,12.368,3.443,13.77,3.57,23.587,7.14a64.215,64.215,0,0,1,16.065,8.16,29.051,29.051,0,0,1,9.18,10.583A32.5,32.5,0,0,1,788.97-39.78q0,19.635-14.535,30.983T734.91,2.55ZM891.225-6.885A152.485,152.485,0,0,1,874.4-.765a70.7,70.7,0,0,1-20.91,3.06A48.534,48.534,0,0,1,840.1.51a29.441,29.441,0,0,1-10.965-5.738,28.023,28.023,0,0,1-7.523-10.2,36.919,36.919,0,0,1-2.8-15.172v-76.755h-17.6V-133.62h17.6v-43.35h34.17v43.35h28.05v26.265h-28.05v65.28q0,7.14,3.7,10.072a14.113,14.113,0,0,0,9.052,2.933,31.431,31.431,0,0,0,10.455-1.785q5.1-1.785,8.16-3.06Zm20.655,32.9a65.924,65.924,0,0,0,8.415,1.912,45.855,45.855,0,0,0,6.885.638,14.615,14.615,0,0,0,6.12-1.275,13.1,13.1,0,0,0,5.1-4.463,43.564,43.564,0,0,0,4.59-8.8q2.3-5.61,4.845-14.025L895.05-133.62h35.19L966.45-29.58l32.13-104.04h32.13L974.61,26.52a47.843,47.843,0,0,1-16.575,22.95q-11.73,8.925-29.07,8.925a55.269,55.269,0,0,1-8.288-.638,53,53,0,0,1-8.8-2.167Z" transform="translate(443 630)" fill="#ed335f"/><rect width="74" height="66" transform="translate(492 478)" fill="#ed335f"/><path d="M35.586,11.875a8,8,0,0,1,13.827,0L78,60.975A8,8,0,0,1,71.085,73H13.915A8,8,0,0,1,7,60.975Z" transform="translate(569.5 467.5) rotate(90)" fill="#761137"/></g></svg>