<svg width="431" height="273" viewBox="0 0 431 273" fill="none" xmlns="http://www.w3.org/2000/svg">
<g clip-path="url(#clip0)">
<path d="M301.871 8.26758H0.128662V151.359H301.871V8.26758Z" fill="#848484"/>
<path d="M293.243 20.5371H8.75708V139.923H293.243V20.5371Z" fill="#202020"/>
<path d="M301.742 0H0V12.8108H301.742V0Z" fill="#ED335F"/>
<path d="M9.52608 8.29964C10.8383 8.29964 11.902 7.23658 11.902 5.92521C11.902 4.61385 10.8383 3.55078 9.52608 3.55078C8.21389 3.55078 7.15015 4.61385 7.15015 5.92521C7.15015 7.23658 8.21389 8.29964 9.52608 8.29964Z" fill="#202020"/>
<path d="M18.5444 8.29964C19.8566 8.29964 20.9203 7.23658 20.9203 5.92521C20.9203 4.61385 19.8566 3.55078 18.5444 3.55078C17.2322 3.55078 16.1685 4.61385 16.1685 5.92521C16.1685 7.23658 17.2322 8.29964 18.5444 8.29964Z" fill="#202020"/>
<path d="M27.5629 8.29964C28.8751 8.29964 29.9389 7.23658 29.9389 5.92521C29.9389 4.61385 28.8751 3.55078 27.5629 3.55078C26.2508 3.55078 25.187 4.61385 25.187 5.92521C25.187 7.23658 26.2508 8.29964 27.5629 8.29964Z" fill="#202020"/>
<path d="M223.738 45.4697H78.4972C77.4376 45.4697 76.4214 45.8904 75.6722 46.6392C74.9229 47.388 74.502 48.4035 74.502 49.4625C74.502 50.5214 74.9229 51.537 75.6722 52.2858C76.4214 53.0346 77.4376 53.4553 78.4972 53.4553H223.738C224.797 53.4553 225.814 53.0346 226.563 52.2858C227.312 51.537 227.733 50.5214 227.733 49.4625C227.733 48.4035 227.312 47.388 226.563 46.6392C225.814 45.8904 224.797 45.4697 223.738 45.4697Z" fill="white"/>
<path d="M223.738 76.2373H78.4972C77.4376 76.2373 76.4214 76.658 75.6721 77.4068C74.9229 78.1555 74.502 79.1711 74.502 80.2301C74.502 81.289 74.9229 82.3046 75.6721 83.0534C76.4214 83.8022 77.4376 84.2228 78.4972 84.2228H223.738C224.797 84.2216 225.812 83.8004 226.56 83.0518C227.308 82.3031 227.729 81.2882 227.729 80.2301C227.729 79.1719 227.308 78.157 226.56 77.4084C225.812 76.6597 224.797 76.2385 223.738 76.2373Z" fill="white"/>
<path d="M223.738 107.005H78.4972C77.4376 107.005 76.4214 107.426 75.6722 108.174C74.9229 108.923 74.502 109.939 74.502 110.998C74.502 112.057 74.9229 113.072 75.6722 113.821C76.4214 114.57 77.4376 114.99 78.4972 114.99H223.738C224.797 114.99 225.814 114.57 226.563 113.821C227.312 113.072 227.733 112.057 227.733 110.998C227.733 109.939 227.312 108.923 226.563 108.174C225.814 107.426 224.797 107.005 223.738 107.005Z" fill="white"/>
<path d="M153.938 53.6897H78.6366C77.5457 53.7054 76.4894 53.3075 75.6803 52.576C74.8713 51.8446 74.3696 50.8339 74.2764 49.7476C74.2353 49.1691 74.3148 48.5884 74.5097 48.0422C74.7047 47.4961 75.0109 46.9962 75.409 46.5743C75.8052 46.1523 76.2835 45.8158 76.8146 45.5854C77.3457 45.3549 77.9183 45.2355 78.4973 45.2344H145.712C147.893 45.2368 149.984 46.1037 151.526 47.6448C153.068 49.1859 153.935 51.2753 153.938 53.4548V53.6897Z" fill="#ED335F"/>
<path d="M192.951 84.4582H78.6366C77.5457 84.474 76.4894 84.076 75.6803 83.3446C74.8713 82.6131 74.3696 81.6024 74.2764 80.5161C74.2353 79.9377 74.3148 79.357 74.5097 78.8108C74.7047 78.2646 75.0109 77.7648 75.409 77.3429C75.8052 76.9209 76.2835 76.5844 76.8146 76.3539C77.3457 76.1235 77.9183 76.004 78.4973 76.0029H184.725C186.906 76.0054 188.997 76.8723 190.539 78.4134C192.081 79.9545 192.948 82.0439 192.951 84.2233V84.4582Z" fill="#ED335F"/>
<path d="M176.969 115.226H78.6366C77.5457 115.242 76.4894 114.844 75.6803 114.112C74.8713 113.381 74.3696 112.37 74.2764 111.284C74.2353 110.705 74.3148 110.125 74.5097 109.578C74.7047 109.032 75.0109 108.532 75.409 108.11C75.8052 107.688 76.2835 107.352 76.8146 107.121C77.3457 106.891 77.9183 106.772 78.4973 106.771H168.744C170.925 106.773 173.015 107.64 174.557 109.181C176.1 110.722 176.967 112.811 176.969 114.991V115.226Z" fill="#ED335F"/>
<path d="M298.914 116.428C299.235 117.041 299.687 117.576 300.237 117.996C300.788 118.416 301.424 118.71 302.101 118.858C302.777 119.005 303.478 119.003 304.154 118.851C304.829 118.698 305.463 118.4 306.011 117.976L320.111 127.17L320.068 118.426L306.685 111.037C305.912 110.164 304.845 109.606 303.688 109.467C302.53 109.328 301.361 109.618 300.403 110.282C299.445 110.947 298.765 111.939 298.49 113.072C298.216 114.205 298.366 115.399 298.914 116.428L298.914 116.428Z" fill="#FFB6B6"/>
<path d="M369.671 265.903H363.622L360.744 242.585L369.672 242.585L369.671 265.903Z" fill="#FFB6B6"/>
<path d="M371.214 271.764L351.708 271.763V271.517C351.709 269.505 352.509 267.575 353.932 266.152C355.356 264.729 357.287 263.93 359.301 263.93H359.301L371.214 263.93L371.214 271.764Z" fill="#2F2E41"/>
<path d="M339.743 265.903H333.694L330.816 242.585L339.744 242.585L339.743 265.903Z" fill="#FFB6B6"/>
<path d="M341.286 271.764L321.781 271.763V271.517C321.781 269.505 322.581 267.575 324.005 266.152C325.428 264.729 327.359 263.93 329.373 263.93H329.373L341.287 263.93L341.286 271.764Z" fill="#2F2E41"/>
<path d="M332.761 146.914L326.733 207.025L329.747 258.91H341.4L343.756 210.104L352.92 183.416L358.254 224.543V258.03L371.512 258.643L375.911 176.653C375.911 176.653 377.406 153.721 374.424 150.911C371.441 148.101 332.761 146.914 332.761 146.914Z" fill="#392E41"/>
<path d="M384.156 92.6733L371.973 88.0899L369.829 83.7451L354.513 83.9674L351.043 87.4514L339.117 91.3557L331.534 149.415C331.534 149.415 354.875 166.087 375.595 154.568L384.156 92.6733Z" fill="#3F3D56"/>
<path d="M309.592 122.039L329.638 133.817L346.342 111.488V97.4826C346.343 96.1882 345.96 94.9224 345.242 93.8455C344.579 92.8503 343.657 92.0549 342.575 91.545C341.493 91.0352 340.292 90.8302 339.102 90.9523C337.912 91.0743 336.778 91.5188 335.823 92.2377C334.867 92.9566 334.126 93.9226 333.679 95.0315L325.005 116.572L312.701 112.938L309.592 122.039Z" fill="#3F3D56"/>
<path d="M367.845 153.45C367.967 152.769 368.237 152.122 368.636 151.557C369.034 150.991 369.553 150.519 370.154 150.175C370.755 149.831 371.424 149.623 372.114 149.566C372.804 149.508 373.499 149.603 374.149 149.842L384.834 136.84L387.421 145.192L376.878 156.259C376.402 157.323 375.553 158.176 374.491 158.656C373.428 159.136 372.226 159.21 371.113 158.864C369.999 158.518 369.052 157.776 368.449 156.778C367.847 155.78 367.632 154.596 367.845 153.45L367.845 153.45Z" fill="#FFB6B6"/>
<path d="M383.782 151.402L377.03 144.654L388.181 124.686L372.008 106.57L372.942 99.2617C373.156 97.5792 373.831 95.9882 374.891 94.6634C375.812 93.5114 376.997 92.5967 378.344 91.9958C379.692 91.3949 381.164 91.1252 382.638 91.2094C384.111 91.2936 385.543 91.7291 386.814 92.4796C388.084 93.23 389.157 94.2736 389.941 95.5231L402.586 123.622L402.523 123.716L383.782 151.402Z" fill="#3F3D56"/>
<path d="M373.386 68.6616C372.919 72.0696 371.117 75.1529 368.376 77.2338C365.635 79.3146 362.179 80.2229 358.769 79.759C355.358 79.2951 352.271 77.497 350.186 74.7598C348.102 72.0225 347.19 68.5701 347.651 65.1612L347.676 64.977C348.214 61.6139 350.053 58.597 352.797 56.577C355.541 54.557 358.969 53.6959 362.343 54.1793C365.716 54.6628 368.764 56.4521 370.829 59.1613C372.895 61.8705 373.811 65.2824 373.382 68.661L373.386 68.6616Z" fill="#FFB6B6"/>
<path d="M370.081 75.3459C370.748 73.9921 371.433 72.5386 371.246 71.0413C371.058 69.544 369.589 68.1128 368.146 68.5578C367.283 68.8239 366.631 69.6753 365.729 69.7189C364.488 69.7788 363.777 68.3596 363.391 67.1795L361.818 62.3736C360.307 63.5501 358.555 64.3789 356.687 64.8007C354.819 65.2226 352.881 65.2271 351.011 64.8141C349.55 64.4803 348.075 63.8297 347.218 62.6014C346.361 61.3731 346.367 59.4677 347.542 58.5389C348.118 58.0835 348.885 57.9105 349.435 57.4245C349.777 57.123 350.012 56.7197 350.107 56.2741C350.201 55.8285 350.15 55.3645 349.959 54.9505C349.769 54.5366 349.451 54.1948 349.051 53.9758C348.652 53.7567 348.192 53.672 347.741 53.7342L351.702 53.2395L350.522 51.1064C350.97 51.4115 351.478 51.6197 352.011 51.7175C352.545 51.8154 353.093 51.8008 353.621 51.6747C354.687 51.4829 355.69 51.0444 356.733 50.752C359.26 50.1072 361.928 50.3042 364.333 51.3133C366.737 52.3224 368.747 54.0883 370.055 56.3427C371.03 56.0175 372.08 55.9959 373.068 56.2807C374.055 56.5656 374.932 57.1436 375.583 57.938C376.644 59.2829 376.932 61.0776 376.973 62.7893C377.05 66.1643 376.314 69.5083 374.826 72.5392C374.4 73.5019 373.787 74.3708 373.023 75.0959C372.638 75.4554 372.179 75.7265 371.679 75.8901C371.178 76.0537 370.648 76.1058 370.125 76.0429" fill="#564D69"/>
<path d="M430.211 272.999H101.503C101.325 273.003 101.15 272.948 101.006 272.842C100.862 272.736 100.757 272.585 100.707 272.413C100.676 272.297 100.673 272.174 100.697 272.056C100.721 271.937 100.772 271.826 100.845 271.73C100.919 271.634 101.014 271.556 101.123 271.503C101.231 271.449 101.35 271.422 101.471 271.421H430.146C430.335 271.415 430.52 271.472 430.672 271.584C430.823 271.696 430.933 271.856 430.982 272.038C431.008 272.154 431.007 272.274 430.98 272.389C430.953 272.504 430.901 272.612 430.827 272.704C430.753 272.796 430.659 272.87 430.552 272.922C430.446 272.973 430.329 272.999 430.211 272.999Z" fill="#CCCCCC"/>
</g>
<defs>
<clipPath id="clip0">
<rect width="431" height="273" fill="white"/>
</clipPath>
</defs>
</svg>
