<svg width="20" height="20" viewBox="0 0 20 20" fill="none" xmlns="http://www.w3.org/2000/svg">
<path d="M18.6396 5.31463C18.0007 5.59862 17.3132 5.79018 16.5917 5.8759C17.3283 5.43493 17.8931 4.73643 18.1595 3.90317C17.4705 4.31204 16.7078 4.60873 15.8954 4.76889C15.2452 4.07603 14.3184 3.64282 13.2929 3.64282C11.3241 3.64282 9.72775 5.23914 9.72775 7.20834C9.72775 7.48739 9.75915 7.75938 9.82018 8.02079C6.85685 7.87192 4.22936 6.45269 2.47077 4.29546C2.16385 4.8218 1.98817 5.43422 1.98817 6.08827C1.98817 7.32511 2.61752 8.4166 3.57426 9.05584C2.99006 9.03714 2.44008 8.87663 1.95924 8.60957C1.95889 8.62439 1.95889 8.63956 1.95889 8.65473C1.95889 10.3819 3.18796 11.8227 4.81921 12.1508C4.52005 12.2319 4.20502 12.2756 3.87976 12.2756C3.64975 12.2756 3.42644 12.2534 3.20878 12.2114C3.6628 13.6278 4.97937 14.659 6.53935 14.6876C5.31909 15.644 3.78204 16.214 2.11129 16.214C1.82377 16.214 1.53979 16.1971 1.26074 16.1639C2.83907 17.1761 4.71302 17.7659 6.72632 17.7659C13.2848 17.7659 16.8708 12.3331 16.8708 7.62144C16.8708 7.46693 16.8676 7.31276 16.8609 7.15966C17.5573 6.65801 18.1619 6.02971 18.6396 5.31463Z" fill="white"/>
</svg>
