<svg width="364" height="349" viewBox="0 0 364 349" fill="none" xmlns="http://www.w3.org/2000/svg">
<g clip-path="url(#clip0)">
<path d="M8.60485 28.0134C6.32349 28.0158 4.13629 28.8394 2.52312 30.3037C0.909954 31.768 0.00256258 33.7533 0 35.8241V296.835C0.00256258 298.906 0.909954 300.891 2.52312 302.355C4.13629 303.82 6.32349 304.643 8.60485 304.646H227.82C230.101 304.643 232.288 303.82 233.901 302.355C235.514 300.891 236.422 298.906 236.424 296.835V35.8241C236.422 33.7533 235.514 31.768 233.901 30.3037C232.288 28.8394 230.101 28.0158 227.82 28.0134H8.60485Z" fill="#706771"/>
<path d="M220.853 115.507H15.1612C12.7369 115.504 10.4126 114.54 8.69836 112.825C6.9841 111.11 6.01983 108.785 6.01709 106.36V47.7214C6.01983 45.2963 6.9841 42.9712 8.69836 41.2564C10.4126 39.5416 12.7369 38.577 15.1612 38.5742H220.853C223.278 38.5769 225.602 39.5415 227.316 41.2563C229.03 42.9712 229.995 45.2963 229.997 47.7214V106.36C229.995 108.785 229.03 111.11 227.316 112.825C225.602 114.54 223.278 115.504 220.853 115.507Z" fill="#1F1D1F"/>
<path d="M220.853 205.033H15.1612C12.7369 205.03 10.4126 204.065 8.69838 202.351C6.98412 200.636 6.01983 198.311 6.01709 195.886V137.247C6.01983 134.822 6.9841 132.497 8.69836 130.782C10.4126 129.067 12.7369 128.102 15.1612 128.1H220.853C223.278 128.102 225.602 129.067 227.316 130.782C229.03 132.497 229.995 134.822 229.997 137.247V195.886C229.995 198.311 229.03 200.636 227.316 202.351C225.602 204.065 223.278 205.03 220.853 205.033Z" fill="#1F1D1F"/>
<path d="M15.1612 218.18C12.8838 218.182 10.7004 219.089 9.09003 220.7C7.47966 222.31 6.57384 224.495 6.57129 226.773V285.411C6.57384 287.689 7.47966 289.873 9.09003 291.484C10.7004 293.095 12.8838 294.001 15.1612 294.004H220.853C223.131 294.001 225.314 293.095 226.924 291.484C228.535 289.873 229.441 287.689 229.443 285.411V226.773C229.441 224.495 228.535 222.31 226.924 220.7C225.314 219.089 223.131 218.182 220.853 218.18H15.1612Z" fill="#1F1D1F"/>
<path d="M26.7906 172.827C30.2471 172.827 33.0491 170.024 33.0491 166.566C33.0491 163.109 30.2471 160.306 26.7906 160.306C23.3342 160.306 20.5322 163.109 20.5322 166.566C20.5322 170.024 23.3342 172.827 26.7906 172.827Z" fill="#706771"/>
<path d="M98.7624 171.852H49.9467C48.5454 171.852 47.2014 171.295 46.2105 170.303C45.2196 169.312 44.663 167.968 44.663 166.566C44.663 165.164 45.2196 163.82 46.2105 162.829C47.2014 161.837 48.5454 161.281 49.9467 161.281H98.7624C100.164 161.281 101.508 161.837 102.499 162.829C103.489 163.82 104.046 165.164 104.046 166.566C104.046 167.968 103.489 169.312 102.499 170.303C101.508 171.295 100.164 171.852 98.7624 171.852Z" fill="#706771"/>
<path d="M138.034 173.14C141.49 173.14 144.292 170.337 144.292 166.879C144.292 163.422 141.49 160.619 138.034 160.619C134.578 160.619 131.776 163.422 131.776 166.879C131.776 170.337 134.578 173.14 138.034 173.14Z" fill="#706771"/>
<path d="M210.006 172.165H161.19C159.789 172.165 158.445 171.608 157.454 170.617C156.463 169.625 155.906 168.281 155.906 166.879C155.906 165.477 156.463 164.133 157.454 163.142C158.445 162.15 159.789 161.594 161.19 161.594H210.006C211.407 161.594 212.751 162.15 213.742 163.142C214.733 164.133 215.29 165.477 215.29 166.879C215.29 168.281 214.733 169.625 213.742 170.617C212.751 171.608 211.407 172.165 210.006 172.165Z" fill="#706771"/>
<path d="M26.7907 83.3009C30.2471 83.3009 33.0491 80.4979 33.0491 77.0403C33.0491 73.5827 30.2471 70.7798 26.7907 70.7798C23.3342 70.7798 20.5322 73.5827 20.5322 77.0403C20.5322 80.4979 23.3342 83.3009 26.7907 83.3009Z" fill="#706771"/>
<path d="M210.476 81.7H61.5249C60.1245 81.6985 58.7819 81.141 57.7921 80.1499C56.8024 79.1588 56.2465 77.8152 56.2465 76.4143C56.2465 75.0134 56.8024 73.6698 57.7921 72.6787C58.7819 71.6876 60.1245 71.1301 61.5249 71.1287H210.476C211.876 71.1301 213.219 71.6876 214.208 72.6787C215.198 73.6698 215.754 75.0134 215.754 76.4143C215.754 77.8152 215.198 79.1588 214.208 80.1499C213.219 81.141 211.876 81.6985 210.476 81.7Z" fill="#706771"/>
<path d="M184.503 81.7H51.8243C50.4229 81.7 49.0789 81.1431 48.088 80.1518C47.0971 79.1606 46.5404 77.8162 46.5404 76.4143C46.5404 75.0125 47.0971 73.668 48.088 72.6768C49.0789 71.6855 50.4229 71.1287 51.8243 71.1287H184.503C185.903 71.1301 187.246 71.6876 188.236 72.6787C189.225 73.6698 189.781 75.0134 189.781 76.4143C189.781 77.8152 189.225 79.1588 188.236 80.1499C187.246 81.141 185.903 81.6985 184.503 81.7Z" fill="#ED335F"/>
<path d="M26.7906 262.352C30.2471 262.352 33.0491 259.549 33.0491 256.092C33.0491 252.634 30.2471 249.831 26.7906 249.831C23.3342 249.831 20.5322 252.634 20.5322 256.092C20.5322 259.549 23.3342 262.352 26.7906 262.352Z" fill="#706771"/>
<path d="M210.475 260.751H61.5248C60.1235 260.751 58.7795 260.194 57.7887 259.203C56.7978 258.212 56.2411 256.867 56.2411 255.466C56.2411 254.064 56.7978 252.719 57.7887 251.728C58.7795 250.737 60.1235 250.18 61.5248 250.18H210.475C211.877 250.18 213.221 250.737 214.212 251.728C215.203 252.719 215.759 254.064 215.759 255.466C215.759 256.867 215.203 258.212 214.212 259.203C213.221 260.194 211.877 260.751 210.475 260.751Z" fill="#706771"/>
<path d="M131.15 260.751H51.8243C50.4229 260.751 49.079 260.194 48.0881 259.203C47.0972 258.212 46.5405 256.867 46.5405 255.466C46.5405 254.064 47.0972 252.719 48.0881 251.728C49.079 250.737 50.4229 250.18 51.8243 250.18H131.15C132.551 250.18 133.895 250.737 134.886 251.728C135.877 252.719 136.434 254.064 136.434 255.466C136.434 256.867 135.877 258.212 134.886 259.203C133.895 260.194 132.551 260.751 131.15 260.751Z" fill="#ED335F"/>
<path d="M58.5522 171.852H49.9468C48.5455 171.852 47.2016 171.295 46.2107 170.303C45.2198 169.312 44.6631 167.968 44.6631 166.566C44.6631 165.164 45.2198 163.82 46.2107 162.829C47.2016 161.837 48.5455 161.281 49.9468 161.281H58.5522C59.9535 161.281 61.2974 161.837 62.2883 162.829C63.2792 163.82 63.8359 165.164 63.8359 166.566C63.8359 167.968 63.2792 169.312 62.2883 170.303C61.2974 171.295 59.9535 171.852 58.5522 171.852Z" fill="#ED335F"/>
<path d="M188.102 172.165H161.19C159.789 172.165 158.445 171.608 157.454 170.617C156.463 169.625 155.906 168.281 155.906 166.879C155.906 165.477 156.463 164.133 157.454 163.142C158.445 162.15 159.789 161.594 161.19 161.594H188.102C189.502 161.595 190.845 162.152 191.834 163.144C192.824 164.135 193.38 165.478 193.38 166.879C193.38 168.28 192.824 169.624 191.834 170.615C190.845 171.606 189.502 172.163 188.102 172.165Z" fill="#ED335F"/>
<path d="M320.198 235.508C321.009 235.427 321.792 235.168 322.492 234.751C323.192 234.334 323.792 233.769 324.25 233.095C324.708 232.421 325.012 231.654 325.142 230.85C325.272 230.045 325.224 229.222 325.001 228.438L341.225 217.077L331.657 213.287L317.718 224.657C316.426 225.118 315.348 226.037 314.689 227.241C314.029 228.444 313.834 229.847 314.14 231.185C314.445 232.522 315.231 233.701 316.348 234.498C317.464 235.295 318.835 235.654 320.198 235.508L320.198 235.508Z" fill="#A0616A"/>
<path d="M327.76 227.211C327.412 227.211 327.067 227.137 326.748 226.995C326.387 226.837 326.069 226.596 325.821 226.29C325.572 225.985 325.4 225.624 325.319 225.238L324.23 220.179C324.137 219.745 324.161 219.294 324.3 218.873C324.439 218.451 324.687 218.074 325.02 217.781L334.641 209.307L325.144 189.402C324.483 188.017 324.37 186.435 324.827 184.971C325.283 183.506 326.276 182.269 327.606 181.506C328.936 180.743 330.506 180.511 332 180.857C333.493 181.202 334.801 182.1 335.662 183.369L347.824 201.315C348.728 202.637 349.351 204.13 349.656 205.702C349.961 207.274 349.94 208.891 349.596 210.455C349.214 212.108 348.493 213.663 347.478 215.022C346.463 216.38 345.177 217.513 343.701 218.348L329.008 226.872C328.63 227.093 328.199 227.21 327.76 227.211Z" fill="#CCCCCC"/>
<path d="M273.858 216.393C274.535 216.845 275.304 217.144 276.109 217.267C276.914 217.39 277.737 217.335 278.519 217.106C279.301 216.877 280.023 216.479 280.634 215.941C281.246 215.402 281.732 214.736 282.058 213.989L301.802 215.536L296.824 206.526L278.839 206.438C277.548 205.973 276.132 205.997 274.858 206.507C273.585 207.016 272.542 207.975 271.928 209.202C271.314 210.429 271.172 211.839 271.527 213.164C271.883 214.489 272.712 215.638 273.858 216.393Z" fill="#A0616A"/>
<path d="M321.072 169.213C328.59 169.213 334.684 163.117 334.684 155.597C334.684 148.077 328.59 141.981 321.072 141.981C313.555 141.981 307.461 148.077 307.461 155.597C307.461 163.117 313.555 169.213 321.072 169.213Z" fill="#A0616A"/>
<path d="M280.995 341.866L274.484 339.927L278.858 313.878L288.469 316.74L280.995 341.866Z" fill="#A0616A"/>
<path d="M280.778 348.675L259.781 342.425L259.86 342.159C260.179 341.086 260.706 340.085 261.412 339.216C262.118 338.346 262.988 337.624 263.973 337.091C264.957 336.557 266.037 336.223 267.151 336.107C268.265 335.992 269.391 336.097 270.464 336.416L270.464 336.416L283.289 340.233L280.778 348.675Z" fill="#2F2E41"/>
<path d="M352.341 341.532L345.547 341.532L342.315 315.317L349.017 315.317L352.341 341.532Z" fill="#A0616A"/>
<path d="M354.074 348.121L332.166 348.12V347.843C332.166 346.722 332.387 345.613 332.815 344.578C333.244 343.543 333.872 342.603 334.664 341.811C335.455 341.019 336.395 340.391 337.43 339.962C338.465 339.533 339.573 339.313 340.693 339.313H340.694L354.074 339.313L354.074 348.121Z" fill="#2F2E41"/>
<path d="M283.501 334.159H276.679C276.313 334.159 275.952 334.078 275.621 333.923C275.29 333.768 274.997 333.542 274.763 333.26C274.529 332.979 274.36 332.65 274.267 332.297C274.174 331.943 274.16 331.573 274.226 331.213L283.781 279.176C283.772 241.264 298.683 219.305 298.833 219.087L299.015 218.825L326.884 221.1L354.662 330.613C354.752 330.971 354.763 331.345 354.691 331.708C354.62 332.071 354.469 332.413 354.249 332.71C354.03 333.008 353.747 333.252 353.421 333.426C353.095 333.601 352.734 333.701 352.365 333.719L344.701 334.09C344.182 334.117 343.668 333.981 343.231 333.7C342.793 333.419 342.455 333.008 342.264 332.525L312.898 259.088C312.84 258.928 312.732 258.79 312.589 258.696C312.447 258.602 312.278 258.556 312.107 258.566C311.938 258.568 311.772 258.622 311.635 258.722C311.498 258.822 311.395 258.963 311.341 259.124L285.856 332.483C285.686 332.972 285.368 333.396 284.946 333.697C284.524 333.997 284.019 334.158 283.501 334.159Z" fill="#2F2E41"/>
<path d="M327.468 223.299L327.255 223.283L297.583 221.043L302.788 187.93C303.359 184.234 305.109 180.822 307.778 178.202C310.447 175.583 313.891 173.898 317.596 173.397C317.824 173.365 318.054 173.334 318.285 173.304C321.196 172.921 324.156 173.292 326.882 174.384C329.608 175.475 332.007 177.249 333.85 179.535C335.737 181.834 337.001 184.58 337.52 187.509C338.04 190.438 337.798 193.452 336.817 196.26L327.468 223.299Z" fill="#CCCCCC"/>
<path d="M312.374 214.652C311.17 215.619 309.786 216.339 308.303 216.771C306.82 217.202 305.266 217.337 303.731 217.166L286.558 215.317C286.166 215.275 285.789 215.14 285.459 214.923C285.128 214.707 284.854 214.415 284.659 214.072C284.463 213.729 284.352 213.344 284.334 212.95C284.316 212.555 284.392 212.162 284.556 211.802L286.846 206.774C287.032 206.364 287.326 206.012 287.696 205.756C288.066 205.499 288.499 205.348 288.948 205.318L301.465 204.479L305.574 182.813C305.839 181.422 306.581 180.168 307.671 179.265C308.761 178.362 310.131 177.867 311.547 177.866C312.402 177.862 313.248 178.04 314.029 178.389C314.809 178.738 315.507 179.249 316.074 179.889C317.15 181.121 317.703 182.724 317.615 184.358L316.819 205.838C316.766 207.462 316.375 209.058 315.673 210.523C314.97 211.989 313.971 213.292 312.737 214.35C312.618 214.453 312.497 214.554 312.374 214.652Z" fill="#CCCCCC"/>
<path d="M310.722 152.197C309.027 152.855 307.241 153.248 305.427 153.363C303.602 153.385 301.662 152.753 300.664 151.363C300.281 150.755 300.033 150.073 299.939 149.361C299.844 148.649 299.905 147.925 300.116 147.239C300.494 145.847 301.174 144.557 302.109 143.459C303.043 142.361 304.208 141.483 305.52 140.887C306.9 140.261 308.389 139.914 309.903 139.865C311.417 139.817 312.925 140.067 314.342 140.603C315.366 137.489 319.223 135.794 322.793 135.698C330.086 135.502 336.607 140.477 339.776 146.458C342.944 152.44 343.407 159.277 343.604 165.915C343.652 167.534 343.673 169.222 342.906 170.684C341.764 172.86 339.17 174.032 336.725 174.961C330.314 177.395 323.699 179.255 316.959 180.519C320.195 178.45 321.222 173.996 319.172 170.918C318.169 169.412 316.522 168.158 316.256 166.414C315.936 164.322 317.72 162.493 318.38 160.468C318.714 159.372 318.729 158.204 318.424 157.1C318.119 155.996 317.506 155.001 316.657 154.232C315.733 153.429 314.629 152.862 313.438 152.579C312.247 152.297 311.006 152.307 309.82 152.61" fill="#2F2E41"/>
<path d="M363.446 349H248.729C248.582 349 248.441 348.941 248.337 348.837C248.233 348.733 248.175 348.592 248.175 348.445C248.175 348.298 248.233 348.157 248.337 348.053C248.441 347.95 248.582 347.891 248.729 347.891H363.446C363.593 347.891 363.734 347.95 363.838 348.053C363.942 348.157 364 348.298 364 348.445C364 348.592 363.942 348.733 363.838 348.837C363.734 348.941 363.593 349 363.446 349Z" fill="#CCCCCC"/>
</g>
<defs>
<clipPath id="clip0">
<rect width="364" height="349" fill="white"/>
</clipPath>
</defs>
</svg>
